<svg width="512" height="512" viewBox="-26 -28 512 512" xmlns="http://www.w3.org/2000/svg">
    <path style="color:#000;fill:#008af0;stroke-width:1;stroke-linejoin:round;-inkscape-stroke:none" d="M230-28C88.797-28-26 86.797-26 228S88.797 484 230 484s256-114.797 256-256S371.203-28 230-28Zm0 30.613c124.659 0 225.387 100.729 225.387 225.387 0 124.659-100.729 225.387-225.387 225.387C105.341 453.387 4.613 352.658 4.613 228 4.613 103.341 105.342 2.613 230 2.613Z"/>
    <path style="color:#000;fill:#ff7500;stroke-linejoin:round;-inkscape-stroke:none" d="M230-17.348C94.643-17.348-15.348 92.643-15.348 228c0 135.357 109.991 245.348 245.348 245.348 135.357 0 245.348-109.991 245.348-245.348C475.348 92.643 365.357-17.348 230-17.348Zm0 24.49c122.121 0 220.857 98.737 220.857 220.858 0 122.121-98.736 220.857-220.857 220.857S9.143 350.121 9.143 228 107.879 7.143 230 7.143Z"/>
</svg>
