<svg width="512" height="512" viewBox="-26 -28 512 512" xmlns="http://www.w3.org/2000/svg">
    <path style="fill:#ff7500;fill-opacity:1;stroke:none;stroke-opacity:1" d="M-2-25.857A15 15 0 0 0-15-11a15 15 0 0 0 2.371 8.015 10.5 10.5 0 0 1 8.45 4.82l1.382-.798A3 3 0 0 1-3 0 3 3 0 0 1-.5-2.954v-1.59A10.5 10.5 0 0 1-10.5-15 10.5 10.5 0 0 1-2-25.293Zm4 0v.564A10.5 10.5 0 0 1 10.5-15 10.5 10.5 0 0 1 .5-4.544v1.587A3 3 0 0 1 3 0a3 3 0 0 1-.192 1.044l1.37.79a10.5 10.5 0 0 1 8.477-4.818A15 15 0 0 0 15-11 15 15 0 0 0 2-25.857ZM-2.29 1.9l-1.368.79a10.5 10.5 0 0 1 .425.934A15 15 0 0 0 0 4a15 15 0 0 0 3.229-.36 10.5 10.5 0 0 1 .45-.94l-1.37-.79A3 3 0 0 1 0 3a3 3 0 0 1-2.29-1.1Z" transform="translate(230.001 231.038) scale(7.65555)"/>
    <path style="fill:#ff7500;fill-opacity:1;stroke:none;stroke-width:7.65555;stroke-opacity:1" d="M66.269 339.154a114.833 114.833 0 0 0 148.26 29.319 114.833 114.833 0 0 0 44.065-46.401 80.383 80.383 0 0 1-.393-74.477l-10.574-6.105a22.967 22.967 0 0 1-6.102 5.318 22.967 22.967 0 0 1-29.152-5.269l-10.54 6.086a80.383 80.383 0 0 1-31.047 106.324 80.383 80.383 0 0 1-100.778-16.954Zm-15.31-26.522 3.736-2.157a80.383 80.383 0 0 1 35.708-95.754 80.383 80.383 0 0 1 107.601 26.273l10.518-6.072a22.967 22.967 0 0 1 10.036-27.894 22.967 22.967 0 0 1 7.656-2.724v-12.11a80.383 80.383 0 0 1-64.397-37.753 114.833 114.833 0 0 0-62.12 15.135 114.833 114.833 0 0 0-48.738 143.056zm200.446-77.8 10.467 6.043a80.383 80.383 0 0 1 4.569-6.396 114.833 114.833 0 0 0-9.88-22.872 114.833 114.833 0 0 0-14.747-20.029 80.383 80.383 0 0 1-7.944.616v12.108a22.967 22.967 0 0 1 16.061 11.133 22.967 22.967 0 0 1 1.474 19.397z" transform="translate(0 4)"/>
    <path style="fill:#ff7500;fill-opacity:1;stroke:none;stroke-width:7.65555;stroke-opacity:1" d="M393.731 339.105a114.833 114.833 0 0 1-148.26 29.319 114.833 114.833 0 0 1-44.065-46.401 80.383 80.383 0 0 0 .393-74.477l10.574-6.105a22.967 22.967 0 0 0 6.102 5.318 22.967 22.967 0 0 0 29.152-5.27l10.54 6.087A80.383 80.383 0 0 0 289.215 353.9a80.383 80.383 0 0 0 100.778-16.955zm15.31-26.522-3.736-2.157a80.383 80.383 0 0 0-35.708-95.755 80.383 80.383 0 0 0-107.601 26.274l-10.518-6.072a22.967 22.967 0 0 0-10.036-27.894 22.967 22.967 0 0 0-7.656-2.724v-12.11a80.383 80.383 0 0 0 64.397-37.753 114.833 114.833 0 0 1 62.12 15.135 114.833 114.833 0 0 1 48.738 143.056zm-200.446-77.8-10.467 6.042a80.383 80.383 0 0 0-4.569-6.395 114.833 114.833 0 0 1 9.88-22.873 114.833 114.833 0 0 1 14.747-20.028 80.383 80.383 0 0 0 7.944.615v12.11a22.967 22.967 0 0 0-16.061 11.132 22.967 22.967 0 0 0-1.474 19.396z" transform="translate(0 4)"/>
</svg>
