<svg width="512" height="512" viewBox="-26 -28 512 512" xmlns="http://www.w3.org/2000/svg">
    <path style="color:#000;fill:#008aff;-inkscape-stroke:none" d="M230.002 123.688c-24.2 0-46.485 8.414-64.13 22.437a72.728 72.728 0 0 0 16.421 20.96c13.066-10.392 29.625-16.603 47.709-16.603 18.084 0 34.643 6.21 47.709 16.604a72.728 72.728 0 0 0 16.422-20.963c-17.646-14.023-39.932-22.436-64.131-22.436zm-95.988 88.121a72.728 72.728 0 0 0-6.246.148 103.396 103.396 0 0 0-1.116 15.08c0 43.556 27.201 80.941 65.471 96.11a72.728 72.728 0 0 0 9.805-24.844c-28.449-11.147-48.483-38.754-48.483-71.266a78 78 0 0 1 .832-11.328 72.728 72.728 0 0 0-20.263-3.9zm191.976 0a72.728 72.728 0 0 0-20.265 3.9 78 78 0 0 1 .832 11.328c0 32.518-20.04 60.13-48.496 71.272a72.728 72.728 0 0 0 9.978 24.775c38.187-15.208 65.313-52.551 65.313-96.047 0-5.121-.39-10.154-1.116-15.08a72.728 72.728 0 0 0-6.246-.148z" transform="translate(-.002 4.583)"/>
</svg>
