<svg width="496" height="496" viewBox="0 0 131.233 131.233" version="1.1" id="svg1" xml:space="preserve" xmlns:xlink="http://www.w3.org/1999/xlink" xmlns="http://www.w3.org/2000/svg">
    <g id="layer1" transform="translate(-44.079 -55.182)">
        <g id="g2">
            <path id="path5-3-2-7-7" style="fill:#21bd4a;fill-opacity:1;stroke:none;stroke-width:0;stroke-dasharray:none" d="M45.05 60.326C53.56 76.47 63.357 93.21 70.755 119.383l7.237-7.236a217.418 217.418 0 0 1 8.576 13.117l10.333-12.315c3.788-4.534 7.182-8.786 10.381-12.762a218.196 218.196 0 0 1-10.414-6.917l7.237-7.236c-26.174-7.398-42.913-17.196-59.057-25.708Zm81.286 50.41-29.023 34.82c5.026 11.042 8.893 22.464 10.959 33.756l22.651-22.651 29.754 29.754 10.461-10.46-29.755-29.754 22.652-22.652c-12.643-2.313-25.448-6.882-37.699-12.813z"/>
            <path id="path5-2" style="color:#000;fill:#21bd4a;fill-opacity:1;stroke:none;stroke-width:0;stroke-linecap:round;stroke-linejoin:round;stroke-miterlimit:5;stroke-dasharray:none;paint-order:fill markers stroke" d="M132.462 73.118c-.774-.649-2.323-1.006-3.1-.362-6.716 8.003-4.668 13.702-13.865 24.662-4.204 5.01-9.289 11.618-15.04 18.5l-33.64 40.091c-2.56 3.052-17.498 22.267-19.406 29.453l23.828-2.933s-4.27-7.802 4.567-18.404l66.599-79.9a2.09 2.09 0 0 0-.238-2.962z"/>
            <path id="path14-5" style="color:#000;fill:#21bd4a;fill-opacity:1;stroke:none;stroke-width:0;stroke-linecap:round;stroke-miterlimit:5;stroke-dasharray:none;paint-order:fill markers stroke" d="m174.342 81.416-12.779-6.7-23.28-19.534-14.412 17.176 23.11 19.39 8.987 11.565 1.461-.587s6.377-2.482 10.813-7.767c4.435-5.285 5.776-12.002 5.776-12.002z"/>
        </g>
    </g>
</svg>
